<svg xmlns="http://www.w3.org/2000/svg" viewBox="0 0 113 113" width="40" height="40">
	<style>
		tspan { white-space:pre }
		.shp0 { fill: #3b5998 } 
		.shp1 { fill: #ffffff } 
	</style>
	<g id="Layer">
		<path id="Layer" class="shp0" d="M56.1 112.2C25.08 112.2 0 87.12 0 56.1C0 25.08 25.08 0 56.1 0C87.12 0 112.2 25.08 112.2 56.1C112.2 87.12 87.12 112.2 56.1 112.2Z" />
		<path id="Layer" class="shp1" d="M70.2 58.29L60.19 58.29L60.19 94.97L45.02 94.97L45.02 58.29L37.81 58.29L37.81 45.41L45.02 45.41L45.02 37.07C45.02 31.1 47.86 21.76 60.33 21.76L71.56 21.81L71.56 34.32L63.41 34.32C62.07 34.32 60.19 34.99 60.19 37.83L60.19 45.42L71.53 45.42L70.2 58.29Z" />
	</g>
	<g id="Layer">
	</g>
	<g id="Layer">
	</g>
	<g id="Layer">
	</g>
	<g id="Layer">
	</g>
	<g id="Layer">
	</g>
	<g id="Layer">
	</g>
	<g id="Layer">
	</g>
	<g id="Layer">
	</g>
	<g id="Layer">
	</g>
	<g id="Layer">
	</g>
	<g id="Layer">
	</g>
	<g id="Layer">
	</g>
	<g id="Layer">
	</g>
	<g id="Layer">
	</g>
	<g id="Layer">
	</g>
</svg>