<svg xmlns="http://www.w3.org/2000/svg" viewBox="0 0 24 24" width="40" height="40">
	<style>
		tspan { white-space:pre }
		.shp0 { fill: #55acee } 
	</style>
	<path class="shp0" d="M21.55 7.75C21.55 7.53 21.54 7.32 21.53 7.11C22.51 6.42 23.33 5.55 24 4.56L24 4.56C23.11 4.95 22.16 5.21 21.16 5.33C22.18 4.73 22.96 3.77 23.33 2.62C22.38 3.18 21.33 3.58 20.21 3.81C19.31 2.84 18.02 2.25 16.62 2.25C13.89 2.25 11.7 4.46 11.7 7.17C11.7 7.56 11.73 7.94 11.81 8.29C7.72 8.09 4.1 6.13 1.67 3.15C1.25 3.88 1 4.73 1 5.63C1 7.34 1.87 8.85 3.18 9.72C2.39 9.71 1.62 9.48 0.96 9.12L0.96 9.17C0.96 11.56 2.66 13.55 4.9 14C4.15 14.21 3.22 14.2 2.68 14.08C3.32 16.03 5.13 17.46 7.28 17.51C5.6 18.82 3.48 19.61 1.18 19.61C0.77 19.61 0.39 19.59 0 19.54C2.18 20.95 4.76 21.75 7.55 21.75C16.6 21.75 21.55 14.25 21.55 7.75L21.55 7.75Z" />
</svg>